<svg width="67" height="59" viewBox="0 0 67 59" fill="none" xmlns="http://www.w3.org/2000/svg">
<path d="M7.06664 55.7923C3.75638 57.2949 0 54.8747 0 51.2394V7.56953C0 3.98339 3.66381 1.56328 6.96225 2.97066L56.5535 24.1303C60.5538 25.8372 60.6182 31.4844 56.6579 33.2821L7.06664 55.7923Z" fill="url(#paint0_linear_404_736)"/>
<path d="M14.1539 35.8934C12.0513 34.1557 11 32.0669 11 29.6268C11 27.1867 12.0513 25.0979 14.1539 23.3602C16.2566 21.6226 18.7842 20.7538 21.7368 20.7538C22.7658 20.7538 23.7164 20.8554 24.5888 21.0588C25.7872 21.3381 27.1053 20.5203 27.1053 19.2898V3.00112C27.1053 1.71909 28.2945 0.768125 29.5451 1.05009L49.9399 5.64826C50.8521 5.85392 51.5 6.66419 51.5 7.59928V12.9017C51.5 14.2143 50.2571 15.171 48.9882 14.8351L37.0118 11.6649C35.7429 11.329 34.5 12.2857 34.5 13.5983V27C34.5 29.4401 31.4224 34.1557 29.3197 35.8934C27.2171 37.631 24.6895 38.4998 21.7368 38.4998C18.7842 38.4998 16.2566 37.631 14.1539 35.8934Z" fill="white"/>
<defs>
<linearGradient id="paint0_linear_404_736" x1="21.5" y1="23.5" x2="8.5" y2="65.5" gradientUnits="userSpaceOnUse">
<stop stop-color="#B60101"/>
<stop offset="1" stop-color="#500000"/>
</linearGradient>
</defs>
</svg>
