<svg width="26" height="26" viewBox="0 0 26 26" fill="none" xmlns="http://www.w3.org/2000/svg">
<path d="M1.44408 25.2843C0.779393 25.6137 0 25.1301 0 24.3883V2.56911C0 1.83776 0.759386 1.3538 1.42231 1.66266L24.1142 12.2348C24.8743 12.5889 24.8873 13.6649 24.136 14.0373L1.44408 25.2843Z" fill="url(#paint0_linear_411_889)"/>
<path d="M3.50017 20C2.46184 18.994 2.00018 17.9127 2.00018 16.5C2.00018 15.0873 1.96184 14.506 3.00017 13.5C4.0385 12.494 5.04192 12 6.5 12C7.00812 12 8.06933 12.3145 8.50012 12.4323C8.93092 12.55 9.05567 12.7646 9.45333 13V0L21.5 3.18423V7.5L12.5001 5V15C12.5001 16.4127 11.5384 18.994 10.5001 20C9.46177 21.006 8.26036 21.5 6.80228 21.5C5.3442 21.5 4.53849 21.006 3.50017 20Z" fill="white"/>
<defs>
<linearGradient id="paint0_linear_411_889" x1="8.34328" y1="10.9576" x2="2.42793" y2="28.46" gradientUnits="userSpaceOnUse">
<stop stop-color="#B60101"/>
<stop offset="1" stop-color="#500000"/>
</linearGradient>
</defs>
</svg>
